{
  "accessors": [
    {
      "bufferView": 2,
      "componentType": 5126,
      "count": 8461,
      "max": [
        3.9487049579620361,
        -0.90597999095916748,
        8.3373823165893555
      ],
      "min": [
        -3.9053769111633301,
        -4.2639060020446777,
        2.013322114944458
      ],
      "type": "VEC3"
    },
    {
      "bufferView": 2,
      "byteOffset": 101532,
      "componentType": 5126,
      "count": 8461,
      "max": [
        0.99965733289718628,
        0.99998414516448975,
        0.99957126379013062
      ],
      "min": [
        -0.99948626756668091,
        -0.99992239475250244,
        -0.99967163801193237
      ],
      "type": "VEC3"
    },
    {
      "bufferView": 3,
      "componentType": 5126,
      "count": 8461,
      "max": [
        0.9998663067817688,
        0.99796068668365479,
        0.9999120831489563,
        1
      ],
      "min": [
        -0.99968749284744263,
        -0.99978023767471313,
        -0.99996095895767212,
        -1
      ],
      "type": "VEC4"
    },
    {
      "bufferView": 1,
      "componentType": 5126,
      "count": 8461,
      "max": [
        0.99559199810028076,
        0.99055701494216919
      ],
      "min": [
        0.13930000364780426,
        0.12045399844646454
      ],
      "type": "VEC2"
    },
    {
      "bufferView": 0,
      "componentType": 5125,
      "count": 47028,
      "max": [
        8460
      ],
      "min": [
        0
      ],
      "type": "SCALAR"
    },
    {
      "bufferView": 2,
      "byteOffset": 203064,
      "componentType": 5126,
      "count": 9087,
      "max": [
        4.6586999893188477,
        -0.021561000496149063,
        8.4807529449462891
      ],
      "min": [
        -3.9808170795440674,
        -4.2057971954345703,
        0.054308000952005386
      ],
      "type": "VEC3"
    },
    {
      "bufferView": 2,
      "byteOffset": 312108,
      "componentType": 5126,
      "count": 9087,
      "max": [
        0.99999570846557617,
        0.99991238117218018,
        0.99949914216995239
      ],
      "min": [
        -0.99994635581970215,
        -0.99959665536880493,
        -0.99995231628417969
      ],
      "type": "VEC3"
    },
    {
      "bufferView": 3,
      "byteOffset": 135376,
      "componentType": 5126,
      "count": 9087,
      "max": [
        0.9991297721862793,
        0.99775391817092896,
        0.99991202354431152,
        1
      ],
      "min": [
        -0.99985051155090332,
        -0.9997522234916687,
        -0.9999503493309021,
        1
      ],
      "type": "VEC4"
    },
    {
      "bufferView": 1,
      "byteOffset": 67688,
      "componentType": 5126,
      "count": 9087,
      "max": [
        0.85545200109481812,
        0.86341500282287598
      ],
      "min": [
        0.0040330002084374428,
        0.0022299999836832285
      ],
      "type": "VEC2"
    },
    {
      "bufferView": 0,
      "byteOffset": 188112,
      "componentType": 5125,
      "count": 51468,
      "max": [
        9086
      ],
      "min": [
        0
      ],
      "type": "SCALAR"
    },
    {
      "bufferView": 2,
      "byteOffset": 421152,
      "componentType": 5126,
      "count": 9273,
      "max": [
        2.7202439308166504,
        -0.43814298510551453,
        11.395379066467285
      ],
      "min": [
        -4.4385790824890137,
        -5.0792131423950195,
        0.00079899997217580676
      ],
      "type": "VEC3"
    },
    {
      "bufferView": 2,
      "byteOffset": 532428,
      "componentType": 5126,
      "count": 9273,
      "max": [
        0.99934834241867065,
        0.99976176023483276,
        0.99998772144317627
      ],
      "min": [
        -0.99997484683990479,
        -0.99990010261535645,
        -0.99999833106994629
      ],
      "type": "VEC3"
    },
    {
      "bufferView": 3,
      "byteOffset": 280768,
      "componentType": 5126,
      "count": 9273,
      "max": [
        0.99995160102844238,
        0.99910151958465576,
        0.99991881847381592,
        1
      ],
      "min": [
        -0.99998223781585693,
        -0.99898016452789307,
        -0.99998182058334351,
        1
      ],
      "type": "VEC4"
    },
    {
      "bufferView": 1,
      "byteOffset": 140384,
      "componentType": 5126,
      "count": 9273,
      "max": [
        0.80529701709747314,
        0.99295198917388916
      ],
      "min": [
        0.0076290001161396503,
        0.0089699998497962952
      ],
      "type": "VEC2"
    },
    {
      "bufferView": 0,
      "byteOffset": 393984,
      "componentType": 5125,
      "count": 51810,
      "max": [
        9272
      ],
      "min": [
        0
      ],
      "type": "SCALAR"
    },
    {
      "bufferView": 2,
      "byteOffset": 643704,
      "componentType": 5126,
      "count": 9846,
      "max": [
        4.5717568397521973,
        -0.25954398512840271,
        7.905797004699707
      ],
      "min": [
        -4.2572751045227051,
        -4.3625907897949219,
        0.062848001718521118
      ],
      "type": "VEC3"
    },
    {
      "bufferView": 2,
      "byteOffset": 761856,
      "componentType": 5126,
      "count": 9846,
      "max": [
        0.99991798400878906,
        0.9999547004699707,
        0.99984532594680786
      ],
      "min": [
        -0.99998855590820312,
        -0.99868178367614746,
        -0.9999995231628418
      ],
      "type": "VEC3"
    },
    {
      "bufferView": 3,
      "byteOffset": 429136,
      "componentType": 5126,
      "count": 9846,
      "max": [
        0.99943166971206665,
        0.99937468767166138,
        0.99987566471099854,
        1
      ],
      "min": [
        -0.99846577644348145,
        -0.99999374151229858,
        -0.99998980760574341,
        1
      ],
      "type": "VEC4"
    },
    {
      "bufferView": 1,
      "byteOffset": 214568,
      "componentType": 5126,
      "count": 9846,
      "max": [
        0.98670798540115356,
        0.99246698617935181
      ],
      "min": [
        0.0076290001161396503,
        0.25314199924468994
      ],
      "type": "VEC2"
    },
    {
      "bufferView": 0,
      "byteOffset": 601224,
      "componentType": 5125,
      "count": 55476,
      "max": [
        9845
      ],
      "min": [
        0
      ],
      "type": "SCALAR"
    },
    {
      "bufferView": 2,
      "byteOffset": 880008,
      "componentType": 5126,
      "count": 9346,
      "max": [
        2.0330569744110107,
        -0.67880898714065552,
        9.936406135559082
      ],
      "min": [
        -4.0641779899597168,
        -4.4258108139038086,
        3.2690849304199219
      ],
      "type": "VEC3"
    },
    {
      "bufferView": 2,
      "byteOffset": 992160,
      "componentType": 5126,
      "count": 9346,
      "max": [
        0.99990689754486084,
        0.99998569488525391,
        0.99998867511749268
      ],
      "min": [
        -0.99992060661315918,
        -0.99999058246612549,
        -0.99986404180526733
      ],
      "type": "VEC3"
    },
    {
      "bufferView": 3,
      "byteOffset": 586672,
      "componentType": 5126,
      "count": 9346,
      "max": [
        0.99999159574508667,
        0.99992799758911133,
        0.99996978044509888,
        1
      ],
      "min": [
        -0.99985498189926147,
        -0.99966192245483398,
        -0.9999995231628418,
        1
      ],
      "type": "VEC4"
    },
    {
      "bufferView": 1,
      "byteOffset": 293336,
      "componentType": 5126,
      "count": 9346,
      "max": [
        0.99445098638534546,
        0.99495398998260498
      ],
      "min": [
        0.0076290001161396503,
        0.17164500057697296
      ],
      "type": "VEC2"
    },
    {
      "bufferView": 0,
      "byteOffset": 823128,
      "componentType": 5125,
      "count": 51552,
      "max": [
        9345
      ],
      "min": [
        0
      ],
      "type": "SCALAR"
    },
    {
      "bufferView": 2,
      "byteOffset": 1104312,
      "componentType": 5126,
      "count": 8453,
      "max": [
        4.7676939964294434,
        -0.084513001143932343,
        6.3458337783813477
      ],
      "min": [
        -3.7987170219421387,
        -4.1380820274353027,
        -0.015274999663233757
      ],
      "type": "VEC3"
    },
    {
      "bufferView": 2,
      "byteOffset": 1205748,
      "componentType": 5126,
      "count": 8453,
      "max": [
        0.99986928701400757,
        0.99954849481582642,
        0.99999105930328369
      ],
      "min": [
        -0.99911636114120483,
        -0.99912840127944946,
        -0.99992763996124268
      ],
      "type": "VEC3"
    },
    {
      "bufferView": 3,
      "byteOffset": 736208,
      "componentType": 5126,
      "count": 8453,
      "max": [
        0.99941951036453247,
        0.9999498724937439,
        0.99952507019042969,
        1
      ],
      "min": [
        -0.99266701936721802,
        -0.99968373775482178,
        -0.99967700242996216,
        1
      ],
      "type": "VEC4"
    },
    {
      "bufferView": 1,
      "byteOffset": 368104,
      "componentType": 5126,
      "count": 8453,
      "max": [
        0.93141001462936401,
        0.99775302410125732
      ],
      "min": [
        0.11689600348472595,
        0.21038299798965454
      ],
      "type": "VEC2"
    },
    {
      "bufferView": 0,
      "byteOffset": 1029336,
      "componentType": 5125,
      "count": 47850,
      "max": [
        8452
      ],
      "min": [
        0
      ],
      "type": "SCALAR"
    },
    {
      "bufferView": 2,
      "byteOffset": 1307184,
      "componentType": 5126,
      "count": 4200,
      "max": [
        4.9341669082641602,
        -0.00039900001138448715,
        11.347003936767578
      ],
      "min": [
        -2.9134149551391602,
        -3.2116990089416504,
        4.6497688293457031
      ],
      "type": "VEC3"
    },
    {
      "bufferView": 2,
      "byteOffset": 1357584,
      "componentType": 5126,
      "count": 4200,
      "max": [
        0.99997663497924805,
        0.99957340955734253,
        0.99555867910385132
      ],
      "min": [
        -0.99998760223388672,
        -0.9999459981918335,
        -0.99972492456436157
      ],
      "type": "VEC3"
    },
    {
      "bufferView": 3,
      "byteOffset": 871456,
      "componentType": 5126,
      "count": 4200,
      "max": [
        0.99986559152603149,
        0.99821484088897705,
        0.99979972839355469,
        1
      ],
      "min": [
        -0.99878549575805664,
        -0.99645644426345825,
        -0.99986875057220459,
        1
      ],
      "type": "VEC4"
    },
    {
      "bufferView": 1,
      "byteOffset": 435728,
      "componentType": 5126,
      "count": 4200,
      "max": [
        0.99252498149871826,
        0.97678697109222412
      ],
      "min": [
        0.26887300610542297,
        0.03500799834728241
      ],
      "type": "VEC2"
    },
    {
      "bufferView": 0,
      "byteOffset": 1220736,
      "componentType": 5125,
      "count": 23916,
      "max": [
        4199
      ],
      "min": [
        0
      ],
      "type": "SCALAR"
    }
  ],
  "asset": {
    "extras": {
      "author": "moxstudios (https://sketchfab.com/moxstudios)",
      "license": "CC-BY-4.0 (http://creativecommons.org/licenses/by/4.0/)",
      "source": "https://sketchfab.com/3d-models/free-low-poly-shovel-knight-e4bdbba9b2ae4d71af75883efcfb42ea",
      "title": "Free_Low poly Shovel Knight"
    },
    "generator": "Sketchfab-8.3.0",
    "version": "2.0"
  },
  "bufferViews": [
    {
      "buffer": 0,
      "byteLength": 1316400,
      "byteOffset": 0,
      "name": "floatBufferViews",
      "target": 34963
    },
    {
      "buffer": 0,
      "byteLength": 469328,
      "byteOffset": 1316400,
      "byteStride": 8,
      "name": "floatBufferViews",
      "target": 34962
    },
    {
      "buffer": 0,
      "byteLength": 1407984,
      "byteOffset": 1785728,
      "byteStride": 12,
      "name": "floatBufferViews",
      "target": 34962
    },
    {
      "buffer": 0,
      "byteLength": 938656,
      "byteOffset": 3193712,
      "byteStride": 16,
      "name": "floatBufferViews",
      "target": 34962
    }
  ],
  "buffers": [
    {
      "byteLength": 4132368,
      "uri": "scene.bin"
    }
  ],
  "images": [
    {
      "uri": "textures/base_baseColor.png"
    },
    {
      "uri": "textures/base_metallicRoughness.png"
    },
    {
      "uri": "textures/base_normal.png"
    }
  ],
  "materials": [
    {
      "doubleSided": true,
      "name": "base",
      "normalTexture": {
        "index": 2,
        "scale": 1,
        "texCoord": 0
      },
      "pbrMetallicRoughness": {
        "baseColorFactor": [
          1,
          1,
          1,
          1
        ],
        "baseColorTexture": {
          "index": 0,
          "texCoord": 0
        },
        "metallicFactor": 1,
        "metallicRoughnessTexture": {
          "index": 1,
          "texCoord": 0
        },
        "roughnessFactor": 1
      }
    }
  ],
  "meshes": [
    {
      "primitives": [
        {
          "attributes": {
            "NORMAL": 1,
            "POSITION": 0,
            "TANGENT": 2,
            "TEXCOORD_0": 3
          },
          "indices": 4,
          "material": 0,
          "mode": 4
        }
      ]
    },
    {
      "primitives": [
        {
          "attributes": {
            "NORMAL": 6,
            "POSITION": 5,
            "TANGENT": 7,
            "TEXCOORD_0": 8
          },
          "indices": 9,
          "material": 0,
          "mode": 4
        }
      ]
    },
    {
      "primitives": [
        {
          "attributes": {
            "NORMAL": 11,
            "POSITION": 10,
            "TANGENT": 12,
            "TEXCOORD_0": 13
          },
          "indices": 14,
          "material": 0,
          "mode": 4
        }
      ]
    },
    {
      "primitives": [
        {
          "attributes": {
            "NORMAL": 16,
            "POSITION": 15,
            "TANGENT": 17,
            "TEXCOORD_0": 18
          },
          "indices": 19,
          "material": 0,
          "mode": 4
        }
      ]
    },
    {
      "primitives": [
        {
          "attributes": {
            "NORMAL": 21,
            "POSITION": 20,
            "TANGENT": 22,
            "TEXCOORD_0": 23
          },
          "indices": 24,
          "material": 0,
          "mode": 4
        }
      ]
    },
    {
      "primitives": [
        {
          "attributes": {
            "NORMAL": 26,
            "POSITION": 25,
            "TANGENT": 27,
            "TEXCOORD_0": 28
          },
          "indices": 29,
          "material": 0,
          "mode": 4
        }
      ]
    },
    {
      "primitives": [
        {
          "attributes": {
            "NORMAL": 31,
            "POSITION": 30,
            "TANGENT": 32,
            "TEXCOORD_0": 33
          },
          "indices": 34,
          "material": 0,
          "mode": 4
        }
      ]
    }
  ],
  "nodes": [
    {
      "children": [
        1
      ],
      "name": "RootNode (gltf orientation matrix)",
      "rotation": [
        -0.70710678118654746,
        -0,
        -0,
        0.70710678118654757
      ]
    },
    {
      "children": [
        2
      ],
      "name": "RootNode (model correction matrix)"
    },
    {
      "children": [
        3,
        4,
        5,
        6,
        7,
        8,
        9
      ],
      "name": "shovel_low.obj.cleaner.materialmerger.gles"
    },
    {
      "mesh": 0,
      "name": ""
    },
    {
      "mesh": 1,
      "name": ""
    },
    {
      "mesh": 2,
      "name": ""
    },
    {
      "mesh": 3,
      "name": ""
    },
    {
      "mesh": 4,
      "name": ""
    },
    {
      "mesh": 5,
      "name": ""
    },
    {
      "mesh": 6,
      "name": ""
    }
  ],
  "samplers": [
    {
      "magFilter": 9729,
      "minFilter": 9987,
      "wrapS": 10497,
      "wrapT": 10497
    }
  ],
  "scene": 0,
  "scenes": [
    {
      "name": "OSG_Scene",
      "nodes": [
        0
      ]
    }
  ],
  "textures": [
    {
      "sampler": 0,
      "source": 0
    },
    {
      "sampler": 0,
      "source": 1
    },
    {
      "sampler": 0,
      "source": 2
    }
  ]
}

